<svg xmlns="http://www.w3.org/2000/svg" viewBox="0 0 64 64" role="img" aria-label="DDING PLUG">
  <rect width="64" height="64" rx="18" fill="#45b66d"/>
  <path d="M8 18c0-5.5 4.5-10 10-10h28c5.5 0 10 4.5 10 10v28c0 5.5-4.5 10-10 10H18C12.5 56 8 51.5 8 46V18Z" fill="#fffaf0"/>
  <path d="M12 22c0-5.5 4.5-10 10-10h20c5.5 0 10 4.5 10 10v20c0 5.5-4.5 10-10 10H22c-5.5 0-10-4.5-10-10V22Z" fill="#f7efd2"/>
  <path d="M17 47h30" stroke="#d99a29" stroke-width="4" stroke-linecap="round"/>
  <text x="32" y="39" text-anchor="middle" font-family="Arial Rounded MT Bold, Arial, sans-serif" font-size="24" font-weight="900" fill="#273929">DP</text>
</svg>
